# xmcd
#
# Track frame offsets:
#	150
#	21171
#	30001
#	40442
#	52080
#	63523
#	79904
#	91640
#	102084
#	114943
#	119641
#	122598
#	131351
#	144205
#	153211
#	158848
#	164315
#	169971
#	178929
#	183073
#	192803
#	197176
#	215132
#	223773
#	235176
#
# Disc length: 3312 seconds
#
# Revision: 2
# Processed by: cddbd v1.5.2PL0 Copyright (c) Steve Scherf et al.
# Submitted via: EZCDAudioConverter 1.3.4.1
#
DISCID=550cee19
DTITLE=Stu Phillips - Beyond The Valley Of The Dolls
DYEAR=1970
DGENRE=
TTITLE0=The Sandpipers - Main Title Sequence - Beyond The Valley Of The Dolls
TTITLE1=Stu Phillips - Find It
TTITLE2=Stu Phillips - Come With The Gentle People
TTITLE3=Stu Phillips - Dinner Party
TTITLE4=Strawberry Alarm Clock - Girl From The City
TTITLE5=Strawberry Alarm Clock - I'm Comin' Home
TTITLE6=Stu Phillips - Ampersand (&)
TTITLE7=Stu Phillips - Sweet Talking Candy Man
TTITLE8=Stu Phillips - In The Long Run
TTITLE9=Stu Phillips - Back Stage
TTITLE10=Stu Phillips - Hang Cool Teddybear!
TTITLE11=Stu Phillips - Late Night Visit
TTITLE12=Stu Phillips - Look On Up At The Bottom
TTITLE13=Lynn Carey and Barbara Robison - Find It
TTITLE14=Stu Phillips - Randy Throws In The Towel
TTITLE15=Stu Phillips - I Need You So Very Much - Checkmate
TTITLE16=Stu Phillips - Let The Games Begin!
TTITLE17=Stu Phillips - Methinks You Remind Me Of Certain Things...
TTITLE18=Stu Phillips - I Am Superwoman!
TTITLE19=Stu Phillips - Murder On The Beach
TTITLE20=Stu Phillips - Gun Stroke
TTITLE21=The Sandpipers - Beyond The Valley Of The Dolls Theme
TTITLE22=Lynn Carey and Barbara Robison - Sweet Talking Candy Man
TTITLE23=Lynn Carey and Barbara Robison - Come With The Gentle People
TTITLE24=Lynn Carey and Barbara Robison - Look On Up At The Bottom
EXTD=
EXTT0=
EXTT1=
EXTT2=
EXTT3=
EXTT4=
EXTT5=
EXTT6=
EXTT7=
EXTT8=
EXTT9=
EXTT10=
EXTT11=
EXTT12=
EXTT13=
EXTT14=
EXTT15=
EXTT16=
EXTT17=
EXTT18=
EXTT19=
EXTT20=
EXTT21=
EXTT22=
EXTT23=
EXTT24=
PLAYORDER=
